<svg xmlns="http://www.w3.org/2000/svg" version="1.1" xmlns:xlink="http://www.w3.org/1999/xlink" xmlns:svgjs="http://svgjs.dev/svgjs" width="100%" height="100%" viewBox="0 0 1000 600"><rect width="1000" height="600" x="0" y="0" fill="#c889e9"/><g><rect width="333.3333333333333" height="333.3333333333333" y="180.3535767922353" fill="#af5bda" transform="matrix(0.790482053200066,0,0,0.790482053200066,-7.9164421699612255,25.68671467646223)" x="205.93017578125"/><path d="M221.71752275394027 422.02023929664745L221.71752275394027 422.02023929664745Q217.3344060638423 422.02023929664745 213.24890840825714 421.7767328138642Q209.1363544768072 421.53322633108104 204.61795640738524 420.80270688273134Q200.09955833796323 420.07218743438165 194.44479668221956 418.71937364114154L194.44479668221956 418.71937364114154Q196.2846234410261 415.31028288217647 198.88202592404713 412.6317115715611Q201.45237213120333 409.95314026094564 204.91557544189806 408.60032646770554Q208.37877875259272 407.22045639860056 212.7618954426907 407.6263005365726L212.7618954426907 407.6263005365726Q215.873367167143 407.8968632952206 217.5237999948959 407.95097584695026Q219.17423282264886 408.0050883986799 221.52812882288666 408.0050883986799L221.52812882288666 408.0050883986799Q230.86254399624346 408.0050883986799 238.9523704798193 403.3243526740691Q247.0421969633952 398.64361694945825 253.0757464812461 390.472621638288Q259.109295999097 382.3016263271177 262.5183867580621 371.5332285329264Q265.9274775170272 360.76483073873504 265.9274775170272 348.589506599574L265.9274775170272 348.589506599574Q265.9274775170272 329.78539487353646 259.5421964129339 316.6360448032425Q253.18397158470532 303.4866947329486 240.41340937651864 296.61440066328885Q227.64284716833197 289.7691628694938 208.45994758018713 289.7691628694938L208.45994758018713 289.7691628694938Q202.61579199338985 289.7691628694938 196.96103033764615 290.1479507316011Q191.3333249577673 290.5267385937083 186.6525892331565 291.12197666273397L186.6525892331565 291.12197666273397L186.6525892331565 419.6933995722745L168.14609654163172 419.6933995722745L168.14609654163172 280.2182974892187Q177.3993428873941 277.97262659244006 188.68180992301666 276.75509417852396Q199.99133323450403 275.53756176460786 208.45994758018713 275.53756176460786L208.45994758018713 275.53756176460786Q233.21643999648126 275.53756176460786 250.5054002740899 284.30379514480376Q267.79436055169856 293.07002852499977 276.8041004146777 309.4390754232051Q285.8138402776569 325.8081223214105 285.8138402776569 348.589506599574L285.8138402776569 348.589506599574Q285.8138402776569 364.471540532213 280.72726041507406 377.9185096370197Q275.66773682835606 391.3384224659616 266.7662220688361 401.2410194324793Q257.8376510334513 411.11656012313216 246.31167751504555 416.5819278478222Q234.75864772077497 422.02023929664745 221.71752275394027 422.02023929664745ZM331.37660883398394 421.6414514345402L331.37660883398394 421.6414514345402Q321.25756166054794 421.6414514345402 313.89825462532167 417.9888541927919Q306.53894759009546 414.3362569510436 302.61578758969915 408.1133135021391Q298.665571313438 401.8633137773697 298.665571313438 393.9899375007123L298.665571313438 393.9899375007123Q298.665571313438 384.14145308592424 303.8333200036152 377.6750031542365Q308.9740124179276 371.1814969466839 320.82466124671106 367.204224394558Q332.64825379962963 363.19989556656725 352.61578538785375 360.8730558421943L352.61578538785375 360.8730558421943Q352.2369975257465 363.19989556656725 350.9112400083712 366.41959239447874Q349.61253876686067 369.63928922239023 346.69046097346205 372.34491680887044Q343.7683831800634 375.0776006712155 338.60063448988615 375.86223267129475L338.60063448988615 375.86223267129475Q330.02379504074383 377.21504646453485 325.58656579891624 379.86656149928547Q321.1493365570887 382.4910202581713 319.5530162810653 385.8459984654068Q317.956696005042 389.2009766726423 317.956696005042 392.79946136266096L317.956696005042 392.79946136266096Q317.956696005042 398.7518420529175 322.23158759168075 403.189071294745Q326.5064791783195 407.6263005365726 333.9198987652754 407.6263005365726L333.9198987652754 407.6263005365726Q340.5486863521519 407.6263005365726 347.25864276662287 404.29837860520195Q353.9956554569586 400.99751294969604 359.62336083683755 393.58409336274025L359.62336083683755 393.58409336274025L359.62336083683755 357.1663460487163Q359.62336083683755 345.55920370271616 354.0227117328235 338.3081217709492Q348.4220626288094 331.05703983918215 335.08331862746184 331.05703983918215L335.08331862746184 331.05703983918215Q329.83440110969025 331.05703983918215 324.66665241951296 332.13929087377426Q319.4989037293358 333.19448563250154 312.4913282803519 335.7377755637929L312.4913282803519 335.7377755637929L307.9999864867948 323.6436202522263Q317.55085186707 319.55812259664117 324.8560463505666 318.2864776309955Q332.1612408340632 317.04188894121455 338.60063448988615 317.04188894121455L338.60063448988615 317.04188894121455Q357.2965211124645 317.04188894121455 367.63201849281904 327.8914555630003Q377.9404595973087 338.741022184786 377.9404595973087 358.5191598419565L377.9404595973087 358.5191598419565L377.9404595973087 386.3871239827028Q377.9404595973087 398.07543515629743 378.860372976712 406.3005430191973Q379.8073426319801 414.52565088209724 381.05193132176095 419.6933995722745L381.05193132176095 419.6933995722745L367.82141242387263 419.6933995722745Q365.0887285615276 418.0429667445215 363.5194645613691 415.4185079856357Q361.9772568370753 412.766992950885 360.8138369748889 409.763746329892L360.8138369748889 409.763746329892L360.5973867679704 406.24643046746775L358.45994097465103 409.763746329892Q351.07357766356 417.15010964098303 344.7424091111963 419.3957805377616Q338.41124055883256 421.6414514345402 331.37660883398394 421.6414514345402ZM426.6417561539529 419.6933995722745L409.29868332461456 419.6933995722745L409.29868332461456 353.0808483931312Q409.29868332461456 344.0981648060169 408.56816387626486 334.9531435637137Q407.8376444279152 325.8081223214105 406.1872116001623 318.98994080348035L406.1872116001623 318.98994080348035L419.634180704969 318.98994080348035Q422.7456524294213 322.182581355527 424.0714099467966 326.05162880419374Q425.3701111883071 329.89361997699564 426.2629682918456 334.57435570160646L426.2629682918456 334.57435570160646L426.2629682918456 338.06461528816595L427.8051760161393 334.57435570160646Q431.6201109130765 327.0527110111914 438.7359114655195 322.34491901071584Q445.82465574209766 317.6100707343754 453.7250882946198 317.6100707343754L453.7250882946198 317.6100707343754Q455.97075919139854 317.6100707343754 458.29759891577146 318.0159148723474Q460.65149491600926 318.3947027344547 463.2759536748951 319.17933473453394L463.2759536748951 319.17933473453394L460.92205767465737 334.35790549468805Q457.9188110536643 333.60032977047354 455.619027605156 333.3838795635551Q453.34630043251263 333.19448563250154 451.5876425013006 333.19448563250154L451.5876425013006 333.19448563250154Q445.55409298344955 333.19448563250154 439.79110622424673 336.5224075638722Q434.0551757409087 339.8232732193781 430.34846594743067 347.0202425994155Q426.6417561539529 354.2442682553177 426.6417561539529 365.9325794289123L426.6417561539529 365.9325794289123L426.6417561539529 419.6933995722745ZM577.0475936863886 419.6933995722745L556.3765989256799 419.6933995722745L529.5097169919311 370.8027090845767L527.5616651296652 367.0959992910988L525.2077691294276 369.63928922239023L512.5454320247 384.033227982465Q510.4079862313807 378.29729749912696 511.5443498177024 370.15335846382146Q512.6536571281592 362.03647570438073 518.0107997493901 355.78647597961145L518.0107997493901 355.78647597961145L549.774867614668 318.98994080348035L571.2034380995915 318.98994080348035L539.0605823722062 354.43366218637135L577.0475936863886 419.6933995722745ZM502.8051727133713 419.6933995722745L484.7045241598185 419.6933995722745L484.7045241598185 272.02024590218355L502.8051727133713 272.02024590218355L502.8051727133713 419.6933995722745Z " fill="#faf5fe" transform="matrix(0.790482053200066,0,0,0.790482053200066,-7.9164421699612255,25.68671467646223)"/><path d="M640.1736940201272 420.06725401954276L622.5968414638937 420.06725401954276L638.4105838100111 278.09619494650997L662.4431322125154 278.09619494650997L700.5263127510209 392.12873838232L701.882551374187 398.2046874141044L703.2387899973533 392.12873838232L741.3219705358587 278.09619494650997L765.354518938363 278.09619494650997L780.978387877237 420.06725401954276L763.2116619137604 420.06725401954276L752.0633804313346 306.41445739821927L751.4937602096048 298.0057779345891L749.1339050052957 306.41445739821927L710.4811042450604 418.11427040218354L693.0941250960703 418.11427040218354L654.2243261561284 306.1974592185127L651.7017223170394 298.0057779345891L651.1049773228463 306.1974592185127L640.1736940201272 420.06725401954276ZM849.332814484811 422.020237636902L849.332814484811 422.020237636902Q836.2586741574894 422.020237636902 825.5443890344768 415.971413377581Q814.8572286839274 409.92258911825996 808.5642814724365 398.2046874141044Q802.2713342609455 386.48678570994883 802.2713342609455 369.4795533754453L802.2713342609455 369.4795533754453Q802.2713342609455 356.10704055102707 806.3129253579807 346.2336233743775Q810.3816412274791 336.3873309701912 817.1628343433099 329.93163512392033Q823.9440274591407 323.50306405011276 832.3527069227708 320.32946567190396Q840.7342616139376 317.15586729369517 849.332814484811 317.15586729369517L849.332814484811 317.15586729369517Q864.278564112102 317.15586729369517 874.8301006003346 324.1269338167692Q885.3545123161041 331.0980003398432 890.8879658986219 342.9786506787787Q896.3942947086765 354.8321762452509 896.3942947086765 369.4795533754453L896.3942947086765 369.4795533754453Q896.3942947086765 382.17394688828045 892.6510761087379 391.9931145200034Q888.8807327363361 401.8122821517264 882.3436625726752 408.48497617770386Q875.8065924090142 415.1847949761446 867.2894138555309 418.60251630652334Q858.7993600745108 422.020237636902 849.332814484811 422.020237636902ZM849.332814484811 407.9696055009007L849.332814484811 407.9696055009007Q858.7993600745108 407.9696055009007 864.956683423685 402.68027487055275Q871.1140067728595 397.418069012668 874.097731743825 388.683892279478Q877.0543319423272 379.92259077382465 877.0543319423272 369.4795533754453L877.0543319423272 369.4795533754453Q877.0543319423272 356.4054130481236 873.2026142525353 347.9153592671035Q869.3508965627434 339.3981807136201 863.0579493512525 335.3023400716583Q856.7650021397616 331.2064994296965 849.332814484811 331.2064994296965L849.332814484811 331.2064994296965Q841.9006268298605 331.2064994296965 835.6076796183696 335.3023400716583Q829.3147324068786 339.3981807136201 825.4630147170867 347.9153592671035Q821.6112970272949 356.4054130481236 821.6112970272949 369.4795533754453L821.6112970272949 369.4795533754453Q821.6112970272949 386.48678570994883 828.8264865025388 397.2281956054248Q836.0416759777827 407.9696055009007 849.332814484811 407.9696055009007ZM957.9132786554932 422.020237636902L957.9132786554932 422.020237636902Q944.2423933339783 422.020237636902 934.640223881962 415.049171113828Q925.0109296574823 408.05097981829067 919.9928467517675 396.0347056170386Q914.9476390735895 384.0455561882498 914.9476390735895 369.09980656095877L914.9476390735895 369.09980656095877Q914.9476390735895 357.38190485680326 918.7179824459913 347.9424840395668Q922.4612010459299 338.5301879947937 928.9168968922008 331.8032444238896Q935.3725927384717 325.04917608052216 943.455774932542 321.49583088782686Q951.5660818990755 317.91536092266824 960.2731338598023 317.91536092266824L960.2731338598023 317.91536092266824Q964.6673469988606 317.91536092266824 969.576930814722 318.62060500671464Q974.5136394030469 319.2987243182977 979.8029700333948 321.25170793565695L979.8029700333948 321.25170793565695Q977.1447423319892 326.02566788920177 972.7505291929308 329.063642405094Q968.3563160538724 332.07449214852284 961.439499075725 331.99311783113285L961.439499075725 331.99311783113285Q954.6854307323576 331.8032444238896 948.50098261072 335.5464630238282Q942.289409716619 339.3168063962301 938.3020681645105 347.5627372250803Q934.2876018399388 355.8086680539305 934.2876018399388 369.09980656095877L934.2876018399388 369.09980656095877Q934.2876018399388 380.41083667816446 937.3527011282943 389.19926295628113Q940.4449251891131 397.9876892343978 946.3581255861175 402.9786473676492Q952.2442012106586 407.9696055009007 960.8427540815319 407.9696055009007L960.8427540815319 407.9696055009007Q967.5968224248995 407.9696055009007 974.025393498707 404.49763462559537Q980.4810893449778 401.02566375029 986.4214145144456 393.7019751851928L986.4214145144456 393.7019751851928L986.4214145144456 272.02024591472565L1004.5950120648721 272.02024591472565L1004.5950120648721 386.6766591171921Q1004.5950120648721 398.3945608213476 1005.4630047836984 406.6404916501979Q1006.358122274988 414.8864224790481 1007.5244874909109 420.06725401954276L1007.5244874909109 420.06725401954276L994.4503471635892 420.06725401954276Q992.0904919592801 418.0057713123302 990.5715047013341 415.72729042541107Q989.0796422158513 413.4216847660286 987.6149045028318 409.5157175313101L987.6149045028318 409.5157175313101L987.208032915882 406.39636869802797L985.6619208854726 409.70559093855337Q979.6944709435415 416.54103359931077 971.8282869291779 419.2806356181064Q963.9621029148142 422.020237636902 957.9132786554932 422.020237636902ZM1079.9747547404468 422.020237636902L1079.9747547404468 422.020237636902Q1069.2333448449708 422.020237636902 1060.4991681117808 418.0057713123302Q1051.7649913785908 414.01842976022175 1045.5534184844898 406.83036505744116Q1039.3689703628522 399.6694251271239 1036.0326233498633 389.93163181279084Q1032.723401109338 380.22096327092123 1032.723401109338 368.69293497400895L1032.723401109338 368.69293497400895Q1032.723401109338 352.8791926278916 1038.5281024164892 341.324039558516Q1044.3328037236402 329.74176171667705 1055.0742136191163 323.44881450518614Q1065.815623514592 317.15586729369517 1080.57149973464 317.15586729369517L1080.57149973464 317.15586729369517Q1090.6347903185329 317.15586729369517 1098.3382256981165 321.57720520521684Q1106.0416610777002 326.02566788920177 1110.7884962587818 333.7019784963222Q1115.5353314398633 341.3511643309793 1116.6474471108595 351.0889576453123Q1117.759562781856 360.7996261871819 1114.5588396311837 371.2426635855613L1114.5588396311837 371.2426635855613L1057.9223147277653 371.2426635855613Q1059.9566726625144 365.68208523058007 1063.7270160349162 361.9117418581782Q1067.470234634855 358.1685232582396 1074.522675475319 358.1685232582396L1074.522675475319 358.1685232582396L1099.3147175067961 358.1685232582396Q1100.1827102256225 350.6278365134358 1097.6058568416067 344.5247627091881Q1095.029003457591 338.4216889049404 1089.983795779413 334.8140941673185Q1084.965712873698 331.2064994296965 1078.6185161172807 331.2064994296965L1078.6185161172807 331.2064994296965Q1070.3997100608938 331.2064994296965 1064.1610123943294 335.60071256875483Q1057.9223147277653 339.99492570781314 1054.396094307533 348.4307299439066Q1050.8698738873013 356.8936589524634 1050.8698738873013 368.90993315371554L1050.8698738873013 368.90993315371554Q1050.8698738873013 380.5193357680178 1054.9385897567997 389.3077620461344Q1058.9801808538348 398.0961883242511 1066.0054969218354 403.0328969125759Q1073.0579377622994 407.9696055009007 1081.927738357806 407.9696055009007L1081.927738357806 407.9696055009007Q1088.6818067011736 407.9696055009007 1094.7306309604944 406.5319925603446Q1100.7794552198156 405.1215043922518 1109.0796355935925 400.9171646604367L1109.0796355935925 400.9171646604367L1113.9620946369905 413.82855635297847Q1104.5769233646809 418.60251630652334 1095.7884970865641 420.31137697171266Q1087.0000708084474 422.020237636902 1079.9747547404468 422.020237636902Z " fill="#faf5fe" transform="matrix(0.790482053200066,0,0,0.790482053200066,-7.9164421699612255,25.68671467646223)"/></g></svg>